<svg id="Layer_1" data-name="Layer 1" xmlns="http://www.w3.org/2000/svg" viewBox="0 0 780.18 139.93"></svg>
    <defs>
        <style>
            .cls-1 {
                fill: white;
            }
        </style>
    </defs>
    <path class="cls-1"
        d="M76.13,129.11q26.31,0,38.4,11.3t12.09,31.1a53.79,53.79,0,0,1-2.7,17.06A37.87,37.87,0,0,1,115.14,203a41.93,41.93,0,0,1-16.23,10q-10.14,3.67-25,3.68H61.53V265H32.71V129.11Zm-1.49,23.62H61.53v40.35H71a41.45,41.45,0,0,0,14-2.14,18.68,18.68,0,0,0,9.2-6.69q3.26-4.56,3.26-11.72,0-10-5.58-14.92T74.64,152.73Z"
        transform="translate(-32.71 -126.97)" />
    <path class="cls-1"
        d="M275.66,196.89a98.34,98.34,0,0,1-3.9,28.59,60.88,60.88,0,0,1-11.86,22.18,51.61,51.61,0,0,1-20.13,14.27q-12.18,5-28.82,5t-28.82-5A51.61,51.61,0,0,1,162,247.66a60.9,60.9,0,0,1-11.86-22.22,99.27,99.27,0,0,1-3.9-28.73q0-21.11,6.92-36.78a52.29,52.29,0,0,1,21.34-24.31Q188.92,127,211.13,127t36.41,8.65A52.48,52.48,0,0,1,268.74,160Q275.66,175.7,275.66,196.89Zm-99.2,0q0,14.24,3.58,24.5t11.2,15.81q7.62,5.53,19.71,5.53,12.27,0,19.9-5.53T242,221.39q3.48-10.27,3.49-24.5,0-21.37-8-33.66T211.13,151q-12.18,0-19.84,5.53T180,172.3Q176.46,182.58,176.46,196.89Z"
        transform="translate(-32.71 -126.97)" />
    <path class="cls-1"
        d="M355.44,188.71h53.93v70.48a164.28,164.28,0,0,1-22.23,5.62A146.65,146.65,0,0,1,361,266.9q-20.28,0-34.41-8a51.38,51.38,0,0,1-21.47-23.62q-7.35-15.61-7.35-38.4,0-21.37,8.23-37a57.31,57.31,0,0,1,24.08-24.18q15.86-8.55,38.73-8.55a98.27,98.27,0,0,1,21.29,2.32,104.27,104.27,0,0,1,19.06,6.05l-9.58,23.05a73.23,73.23,0,0,0-14.22-5.29,64.39,64.39,0,0,0-16.74-2.14q-12.56,0-21.8,5.76A38.36,38.36,0,0,0,332.52,173q-5.07,10.38-5.07,24.41A70.6,70.6,0,0,0,331.08,221a33.21,33.21,0,0,0,11.43,16.08q7.82,5.82,20.37,5.82a73.68,73.68,0,0,0,10.36-.61q4.23-.6,7.95-1.25V212.7H355.44Z"
        transform="translate(-32.71 -126.97)" />
    <path class="cls-1" d="M520,265H441.72V129.11H520v23.62H470.55v29.84h46v23.62h-46v35.05H520Z"
        transform="translate(-32.71 -126.97)" />
    <path class="cls-1"
        d="M659,129.11v88a51.88,51.88,0,0,1-6.18,25.33,44,44,0,0,1-18.69,17.9q-12.51,6.61-31.47,6.6-27,0-41.1-13.76T547.44,216.7V129.11h28.73v83.22q0,16.83,6.88,23.61t20.36,6.79q9.48,0,15.39-3.25a19.5,19.5,0,0,0,8.69-10q2.79-6.78,2.79-17.29v-83Z"
        transform="translate(-32.71 -126.97)" />
    <path class="cls-1"
        d="M812.89,265H776.26L717.12,162.21h-.83q.36,6.42.65,12.92t.56,13q.27,6.45.55,13v64H692.3V129.11h36.35l59,101.81h.65q-.18-6.31-.46-12.55t-.51-12.46q-.24-6.22-.42-12.46V129.11h25.94Z"
        transform="translate(-32.71 -126.97)" />
</svg>